<?xml version="1.0" encoding="utf-8"?>
<!-- Generator: Adobe Illustrator 15.0.0, SVG Export Plug-In . SVG Version: 6.00 Build 0)  -->
<!DOCTYPE svg PUBLIC "-//W3C//DTD SVG 1.1//EN" "http://www.w3.org/Graphics/SVG/1.1/DTD/svg11.dtd">
<svg version="1.1" id="Layer_1" xmlns="http://www.w3.org/2000/svg" xmlns:xlink="http://www.w3.org/1999/xlink" x="0px" y="0px"
	 width="838.424px" height="281.002px" viewBox="0 0 838.424 281.002" enable-background="new 0 0 838.424 281.002"
	 xml:space="preserve">
<g>
	<path fill="#424142" d="M1034.9,1402.459c0,29.058-10.268,53.86-30.808,74.401c-20.552,20.548-45.351,30.814-74.4,30.814
		c-29.065,0-53.872-10.267-74.409-30.814c-20.54-20.541-30.813-45.344-30.813-74.401s10.273-53.86,30.813-74.4
		c20.537-20.548,45.344-30.814,74.409-30.814c29.05,0,53.849,10.267,74.4,30.814C1024.632,1348.599,1034.9,1373.401,1034.9,1402.459
		z M929.692,1320.557c-22.553,0-41.834,8.006-57.871,24.047c-16.034,16.019-24.062,35.307-24.062,57.855
		c0,22.542,8.027,41.845,24.062,57.871c16.037,16.033,35.318,24.039,57.871,24.039c22.534,0,41.825-8.006,57.862-24.039
		c15.908-15.911,23.856-35.192,23.856-57.871c0-22.672-7.948-41.952-23.856-57.855
		C971.517,1328.563,952.226,1320.557,929.692,1320.557z"/>
	<path fill="#424142" d="M1065.149,1308.893c0-3.254,1.119-6.012,3.384-8.258c2.246-2.268,5.004-3.391,8.258-3.391
		c3.271,0,6.016,1.123,8.269,3.391c2.261,2.246,3.384,5.004,3.384,8.258v21.801c23.054-22.305,47.716-33.449,74.022-33.449
		c27.071,0,49.98,9.518,68.775,28.554c19.154,19.05,28.729,42.031,28.729,68.958v101.277c0,3.246-1.145,6.004-3.459,8.258
		c-2.325,2.261-5.112,3.384-8.37,3.384c-3.254,0-6.016-1.123-8.262-3.384c-2.253-2.254-3.383-5.012-3.383-8.258v-101.277
		c0-20.663-7.269-38.079-21.797-52.227c-14.525-14.658-31.931-21.973-52.234-21.973c-20.284,0-37.762,7.314-52.412,21.973
		c-14.407,14.27-21.61,31.686-21.61,52.227v101.277c0,3.246-1.123,6.004-3.384,8.258c-2.253,2.261-4.997,3.384-8.269,3.384
		c-3.254,0-6.012-1.123-8.258-3.384c-2.265-2.254-3.384-5.012-3.384-8.258V1308.893z"/>
	<path fill="#424142" d="M1290.605,1308.893c0-3.254,1.126-6.012,3.395-8.258c2.25-2.268,4.993-3.391,8.258-3.391
		c3.262,0,6.001,1.123,8.265,3.391c2.254,2.246,3.388,5.004,3.388,8.258v21.801c23.039-22.305,47.716-33.449,74.009-33.449
		c27.06,0,49.994,9.518,68.774,28.554c19.169,19.05,28.751,42.031,28.751,68.958v101.277c0,3.246-1.158,6.004-3.477,8.258
		c-2.326,2.261-5.098,3.384-8.359,3.384s-6.025-1.123-8.265-3.384c-2.265-2.254-3.384-5.012-3.384-8.258v-101.277
		c0-20.663-7.268-38.079-21.808-52.227c-14.515-14.658-31.927-21.973-52.233-21.973c-20.281,0-37.744,7.314-52.41,21.973
		c-14.398,14.27-21.599,31.686-21.599,52.227v101.277c0,3.246-1.134,6.004-3.388,8.258c-2.264,2.261-5.003,3.384-8.265,3.384
		c-3.265,0-6.008-1.123-8.258-3.384c-2.269-2.254-3.395-5.012-3.395-8.258V1308.893z"/>
	<path fill="#424142" d="M1681.022,1462.396c3.262,0,6.026,1.151,8.272,3.477c2.246,2.318,3.384,5.098,3.384,8.352
		c0,3.27-1.008,5.954-3.017,8.086c-19.525,16.904-42.384,25.364-68.562,25.364c-29.065,0-53.868-10.267-74.401-30.814
		c-20.548-20.541-30.814-45.344-30.814-74.401s10.267-53.86,30.814-74.4c20.533-20.548,45.336-30.814,74.401-30.814
		c29.058,0,53.86,10.267,74.386,30.814c20.563,20.54,30.814,45.343,30.814,74.4c0,3.255-1.108,6.02-3.376,8.279
		c-2.247,2.247-5.019,3.363-8.272,3.363h-175.109c3.766,18.798,11.642,34.197,23.672,46.229
		c16.049,16.033,35.336,24.039,57.886,24.039c10.273,0,19.799-1.648,28.554-4.975c8.762-3.313,16.782-8.107,24.046-14.371
		C1675.832,1463.274,1678.272,1462.396,1681.022,1462.396z M1702.449,1390.824c-3.514-18.676-11.34-34.082-23.485-46.221
		c-16.034-16.041-35.308-24.047-57.863-24.047c-22.55,0-41.837,8.006-57.886,24.047c-12.03,12.016-19.906,27.43-23.672,46.221
		H1702.449z"/>
	<path fill="#424142" d="M1921.518,1462.396c3.255,0,6.005,1.151,8.258,3.477c2.269,2.318,3.384,5.098,3.384,8.352
		c0,3.27-1.008,5.954-3.002,8.086c-19.532,16.904-42.384,25.364-68.591,25.364c-29.043,0-53.846-10.267-74.372-30.814
		c-20.569-20.541-30.821-45.344-30.821-74.401s10.252-53.86,30.821-74.4c20.526-20.548,45.329-30.814,74.372-30.814
		c29.087,0,53.875,10.267,74.408,30.814c20.548,20.54,30.829,45.343,30.829,74.4c0,3.255-1.138,6.02-3.392,8.279
		c-2.253,2.247-5.011,3.363-8.265,3.363h-175.095c3.743,18.798,11.627,34.197,23.657,46.229
		c16.034,16.033,35.329,24.039,57.856,24.039c10.288,0,19.799-1.648,28.568-4.975c8.783-3.313,16.782-8.107,24.054-14.371
		C1916.32,1463.274,1918.753,1462.396,1921.518,1462.396z M1942.937,1390.824c-3.514-18.676-11.332-34.082-23.485-46.221
		c-16.048-16.041-35.328-24.047-57.885-24.047c-22.527,0-41.822,8.006-57.856,24.047c-12.03,12.016-19.914,27.43-23.657,46.221
		H1942.937z"/>
	<path fill="#424142" d="M1997.445,1308.893c0-3.254,1.116-6.012,3.37-8.258c2.239-2.268,5.025-3.391,8.279-3.391
		c3.255,0,5.997,1.123,8.258,3.391c2.247,2.246,3.384,5.004,3.384,8.258v26.495c25.422-25.429,52.73-38.144,81.903-38.144
		c15.674,0,29.064,2.447,40.217,7.322c1.994,0.763,3.809,1.951,5.443,3.578c2.116,2.131,3.204,4.881,3.204,8.265
		c0,3.262-1.139,6.019-3.385,8.266c-2.253,2.261-5.011,3.384-8.258,3.384c-2.023,0-3.766-0.375-5.263-1.123
		c-8.798-4.27-19.432-6.379-31.959-6.379c-22.557,0-41.83,8.006-57.863,24.047c-16.026,15.903-24.04,35.184-24.04,57.855v93.574
		c0,3.246-1.137,6.004-3.384,8.258c-2.261,2.261-5.003,3.384-8.258,3.384c-3.254,0-6.04-1.123-8.279-3.384
		c-2.254-2.254-3.37-5.012-3.37-8.258V1308.893z"/>
</g>
<g>
	<g>
		<path fill="#7E7F7E" d="M1208.842,1013.91c-23.006,1.656-42.053,11.174-57.161,28.597c-15.142,17.423-21.88,37.64-20.267,60.621
			c1.648,22.995,11.191,42.06,28.614,57.165c17.427,15.119,37.618,21.88,60.639,20.245c22.956-1.62,42.024-11.174,57.147-28.597
			c15.133-17.409,21.857-37.611,20.23-60.621c-1.648-22.995-11.159-42.053-28.575-57.18
			C1252.051,1019.051,1231.82,1012.298,1208.842,1013.91z M1270.273,1093.301c1.091,15.414-3.405,28.877-13.417,40.439
			c-10.086,11.577-22.801,17.941-38.208,19.043c-15.36,1.088-28.827-3.376-40.44-13.441c-11.591-10.064-17.927-22.779-19.01-38.165
			c-1.099-15.371,3.43-28.878,13.463-40.483c10.04-11.548,22.762-17.884,38.122-18.985c15.299-1.095,28.737,3.427,40.394,13.514
			C1262.833,1065.33,1269.182,1078.022,1270.273,1093.301z"/>
		<polyline fill="#7E7F7E" points="1280.514,1106.439 1397.768,1077.094 1390.219,1042.528 1272.977,1071.896 		"/>
	</g>
</g>
<g>
	<g>
		<path fill="#7E7F7E" d="M1879.22,509.682c-25.544-26.078-56.431-39.307-92.911-39.725c-36.48-0.428-67.741,12.096-93.782,37.575
			c-26.091,25.483-39.339,56.438-39.742,92.925c-0.417,36.424,12.096,67.713,37.575,93.769
			c25.479,26.069,56.438,39.31,92.911,39.741c36.452,0.404,67.691-12.113,93.804-37.613c26.034-25.44,39.274-56.413,39.699-92.887
			C1917.177,567.008,1904.678,535.729,1879.22,509.682z M1853.064,671.824c-19.381,18.935-42.535,28.24-69.404,27.938
			c-26.926-0.331-49.843-10.145-68.734-29.521c-18.936-19.338-28.244-42.481-27.928-69.397
			c0.281-26.912,10.123-49.847,29.497-68.778c19.367-18.895,42.492-28.215,69.419-27.884c26.883,0.292,49.793,10.134,68.734,29.482
			c18.763,19.237,28.035,42.345,27.697,69.411C1882.021,630.152,1872.265,653.062,1853.064,671.824z"/>
		<polyline fill="#7E7F7E" points="1705.544,705.928 1644.548,827.206 1673.628,843.664 1737.143,724.287 		"/>
	</g>
</g>
<path fill-rule="evenodd" clip-rule="evenodd" fill="#7E7F7E" d="M1740.426,910.729l-6.487-12.412l-7.566-11.994l-1.872-2.592
	l0.31-0.281l-0.396,0.184l-6.487-8.909l-9.338-10.738l-9.906-10.145l-11.203-9.237l-11.648-8.582l-12.391-7.584l-13.189-6.988
	l-13.773-5.723l-14.564-4.846l-9.468-2.549l-9.597-1.821l-9.519-1.638l-9.381-0.961l-9.532-0.49l-9.223-0.119l-9.518,0.451
	l-9.209,0.824l-9.1,1.422l-9.101,1.699l-8.949,2.116l-8.849,2.538l-8.524,3.143l-8.676,3.42l-8.149,3.74l-8.358,4.057l-7.776,4.582
	l-7.632,4.979l-7.648,5.228l-7.096,5.558l-7.016,5.983l-6.628,6.411l-6.394,6.782l-6.13,6.954l-5.573,7.287l-5.547,7.516
	l-4.957,7.905l-4.697,8.2l-4.212,8.309l-3.949,8.762l-3.329,9.101l-3.107,9.255l-4.539,18.871l-2.7,18.66l-0.659,18.741
	l1.099,18.359l3.106,17.897l4.619,17.604l6.328,16.998l7.974,16.242l9.481,15.437l11.059,14.428l12.2,13.305l13.823,12.239
	l14.968,10.93l16.185,9.475l17.272,7.927l18.518,6.278l5.363,1.433l5.307,1.311l5.536,1.108l5.263,1.152l2.21,0.287l0.749,0.713
	l-0.23-0.655l2.679,0.331l5.479,0.706l5.076,0.454l5.414,0.496l5.349,0.23l5.473-0.021l5.306,0.029l5.241-0.202l5.184-0.439
	l5.184-0.374l5.335-0.691l5.112-0.863l-3.816,0.374l-3.837,0.115l-3.909,0.158l-3.902-0.101l-3.932-0.058l-3.931-0.13l-3.924-0.252
	l-3.995-0.31l-4.004-0.532l-4.024-0.476l-3.974-0.533l-3.859-0.827l-4.111-0.894l-3.822-0.771l-4.082-0.942l-3.968-1.231
	l-0.655-0.273l-0.172-0.476l-2.772-8.905l-2.073-9.756l-1.729-10.54l-0.539-6.105l6.019,1.771l7.329,2.102l7.286,1.829l7.444,1.627
	l7.192,1.411l7.149,1.246l7.344,1.13l6.847,0.907l6.962,0.504l7.026,0.591l6.71,0.172h6.423l4.189-0.035l1.217,3.852l3.535,8.136
	l4.521,7.235l4.651,6.012l1.879-0.879l0.943-1.072l-2.542-7.617l-1.943-8.402l-1.274-7.804l3.924-0.288l6.04-0.764l5.99-0.842
	l5.501-1.159l5.723-1.152l5.148-1.569l5.198-1.569l4.888-1.915l4.645-1.915l4.535-2.275l4.133-2.261l4.097-2.635l3.736-2.649
	l3.341-2.715l3.24-3.16l3.06-3.096l2.427-3.521l-3.716,1.937l-3.729,1.742l-4.031,1.699l-4.27,1.584l-4.313,1.368l-4.528,1.158
	l-4.803,1.231l-4.853,1.037l-4.91,0.784l-5.047,0.828l-5.385,0.691l-5.429,0.475l-5.443,0.252l-5.658,0.296l-5.738,0.058
	l-5.458-0.087l-0.137-2.57l-0.137-10.417l0.619-11.203l0.836-11.281l1.425-11.837l2.06-11.994l1.411-7.235h0.489l7.438,0.46
	l7.473,0.519l7.143,0.079l7.092-0.165l7.048-0.346l6.53-0.461l6.509-0.734l6.458-0.85l6.163-1.281l5.752-1.225l5.616-1.433
	l5.63-1.591l5.119-1.994l4.838-1.937l4.507-2.34l4.629-2.297l4.039-2.664l3.802-2.822l3.247-2.966l3.182-3.183l2.794-3.254
	l-4.018,1.706l-4.168,1.821l-4.536,1.397l-4.564,1.389l-5.004,1.304l-4.766,1.224l-5.321,0.85l-5.335,0.922l-5.493,0.756
	l-5.925,0.54l-5.623,0.475l-6.142,0.433l-6.148,0.086l-6.228-0.015l-6.473-0.23l-6.71-0.201l-6.479-0.41l-6.962-0.562l-6.854-0.627
	l-4.276-0.453l2.923-10.576l3.91-13.061l4.586-12.974l3.852-10.108l4.146-9.925l4.068-9.69l4.507-9.313l4.528-9.107l2.246-4.209
	l0.922-0.121l5.249-0.379l5.09-0.63l5.104-0.874l4.853-1.001l4.622-0.943l4.521-1.437l4.306-1.346l4.061-1.556l3.945-1.782
	l3.772-1.857l3.47-2.059l3.132-2.301l3.018-2.207l2.707-2.563l2.627-2.609l2.175-2.775l-3.081,1.591l-3.398,1.396l-3.614,1.466
	l-3.715,0.924l-3.859,1.282l-3.938,0.86l-4.146,0.889l-4.227,0.886l-4.392,0.677l-4.464,0.512l-4.558,0.277l-4.787,0.302
	l-4.946,0.39l-1.793-0.047l3.514-5.807l5.083-7.614l5.313-7.444l5.233-6.76l5.277-6.581l5.177-6.048l5.422-5.67l2.592-2.39
	l1.641,1.738l7.517,9.507l7.135,9.864l6.026,10.233l5.522,10.857l4.614,11.063l3.982,11.364l2.887,11.639l2.282,11.951
	l-1.347-14.208l-2.722-13.91l-3.549-13.74l-4.724-13.525L1740.426,910.729z M1480.491,867.531l6.833-4.773l7.12-4.438l7.315-4.295
	l7.502-3.805l7.545-3.417l7.861-3.02l7.877-2.762l8.179-2.426l8.114-1.962l8.387-1.53l8.432-1.328l8.596-0.637l8.373-0.439
	l8.755,0.018l8.618,0.656l8.689,0.936l8.799,1.281l8.604,1.807l4.428,1.16l-2.945,1.443l-7.688,4.813l-7.732,5.699l-7.855,6.414
	l-7.617,7.491l-7.675,8.193l-7.257,9.028l-7.401,9.651l-7.235,10.393l-6.861,10.962l-1.627,2.828l-3.83-1.453l-8.878-3.842
	l-8.604-4.067l-8.488-4.093l-7.97-4.184l-7.84-4.496l-7.546-4.463l-2.009-1.332l0.411-0.648l4.773-5.777l4.802-5.482l4.881-5.148
	l4.954-4.896l5.068-4.219l5.075-4.259l4.997-3.51l-6.307,1.75l-6.596,2.314l-6.479,3.168l-6.364,3.606l-6.17,4.468l-6.293,4.723
	l-6.184,5.602l-1.095,1.068l-1.159-0.791l-6.552-4.799l-6.019-4.82l-0.685-0.651L1480.491,867.531z M1550.183,930.92l-3.009,5.771
	l-5.997,13.031l-5.451,13.183l-5.313,14.047l-5.674,16.541l-4.601,16.4l-0.771,3.046l-11.324-4.831l-11.124-4.925l-10.698-4.996
	l-10.296-5.267l-9.874-5.418l-7.649-4.611l2.477-9.252l3.297-10.442l3.676-10.738l3.315-8.362l3.563-8.035l3.644-7.754l3.938-7.625
	l3.938-7.415l4.233-7.077l4.284-6.768l0.936-1.202l1.642,1.328l7.66,5.918l8.078,5.544l8.705,5.381l9.409,5.314l9.734,4.971
	L1550.183,930.92z M1420.328,948.901l3.099-8.165l3.607-7.966l3.838-7.833l4.406-7.498l4.658-7.358l4.967-6.912l5.249-6.556
	l5.595-6.367l5.77-6.206l6.105-5.8l4.583-3.884l0.504,0.749l5.198,6.174l5.882,6.234l1.21,1.141l-2.815,3.248l-5.565,7.105
	l-5.594,7.448l-5.137,8.146l-4.867,8.482l-4.562,8.891l-4.255,9.266l-3.938,9.684l-3.996,11.484l-2.771,9.752l-2.639-1.793
	l-8.133-5.811l-7.692-6.048l-4.651-3.805L1420.328,948.901z M1414.039,1042.342l-2.566-16.632l-1.231-16.71l0.764-17.153
	l2.361-17.239l2.185-9.146l6.026,6.936l7.56,7.474l8.236,7.557l0.716,0.547l-1.559,8.668l-1.13,10.883l-0.485,10.792l0.05,10.137
	l0.939,9.792l1.519,9.432l2.106,8.841l2.632,8.258l3.455,7.696l1.516,2.563l-3.491-2.218l-8.031-5.529l-7.593-5.414l-7.123-5.508
	l-3.838-3.333L1414.039,1042.342z M1518.945,1165.765l-15.97-7.308l-14.939-8.654l-13.822-10.029l-12.405-11.159l-11.314-12.34
	l-10.158-13.269l-8.748-14.234l-4.33-8.913l6.717,5.918l8.554,6.818l9.402,6.603l9.81,6.335l10.263,6.178l11.088,5.645l11.476,5.486
	l11.829,4.996l6.041,2.218l1.757,7.675l3.354,10.425l4.054,9.345l4.773,8.511l2.498,3.124L1518.945,1165.765z M1509.448,1072.58
	l-0.619,14.436l0.145,13.751l0.338,5.04l-10.051-4.075l-10.079-4.472l-9.921-4.485l-9.468-4.802l-9.054-4.881l-1.965-1.116
	l-2.121-6.185l-2.026-7.48l-1.505-8.078l-1.051-8.409l-0.422-8.683l-0.129-9.331l0.266-9.302l0.965-9.733l1.113-9.972l0.831-4.118
	l1.559,1.13l10.382,6.854l11.084,6.977l11.88,6.3l12.347,6.234l12.729,5.443l-1.563,8.315l-2.211,15.645L1509.448,1072.58z
	 M1610.625,1074.646l-1.181,12.974l-0.598,12.506l0.417,11.728l0.771,11.376l0.994,5.961l-4.63-0.425l-6.321-0.684l-6.357-0.713
	l-6.4-0.914l-6.364-0.922l-6.717-1.325l-6.473-1.354l-6.688-1.31l-6.768-1.526l-6.775-1.743l-6.861-1.929l-6.616-2.017l-6.904-2.188
	l-0.403-0.13l0.137-5.673l0.67-13.082l1.151-13.168l1.642-13.924l2.348-14.054l2.08-10.433l7.762,2.671l8.33,2.751l8.38,2.556
	l8.287,2.354l8.186,2.103l8.251,1.9l8.2,1.908l8.086,1.454l8.113,1.281l4.133,0.511l-0.029,0.403L1610.625,1074.646z
	 M1641.726,971.587l-5.075,10.821l-4.953,11.462l-4.572,11.876l-4.845,14.14l-3.91,14.169l-1.482,6.221l-5.623-0.871l-7.235-1.419
	l-7.423-1.598l-7.488-1.605l-7.48-1.836l-7.782-1.987l-7.523-2.03l-7.632-2.506l-7.762-2.203l-7.688-2.678l-3.449-1.152
	l3.349-12.405l4.636-14.985l5.234-15.378l4.334-12.07l4.673-11.588l4.996-11.261l1.973-4.345l3.564,1.367l6.703,2.211l6.595,2.009
	l6.356,1.836l6.566,1.573l6.523,1.612l6.472,1.3l6.329,0.947l6.271,1.22l6.105,0.688l6.307,0.504l5.803,0.558l6.063,0.303
	l2.318,0.062l-3.665,6.403L1641.726,971.587z M1711.57,889.188l-6.688,4.14l-6.782,4.792l-6.875,5.525l-6.451,6.357l-6.84,6.896
	l-6.414,7.672l-6.336,8.096l-4.133,6.084l-0.763-0.021l-5.371-0.252l-5.378-0.67l-5.645-0.432l-5.4-0.89l-5.709-0.817l-5.709-0.878
	l-5.926-0.976l-5.767-1.26l-5.788-1.271l-6.034-1.476l-6.055-1.443l-5.86-1.688l-6.127-1.638l-5.846-1.973l-2.83-0.965l0.525-1.069
	l5.437-10.238l5.536-9.758l5.803-9.371l5.695-8.892l5.982-8.722l6.084-8.061l5.961-7.613l6.336-7.016l6.163-6.692l4.946-4.874
	l11.857,3.841l12.045,4.942l11.203,5.537l10.785,6.313l10.237,7.132l9.402,7.801l9.079,8.279l4.111,4.352L1711.57,889.188z"/>
<path fill-rule="evenodd" clip-rule="evenodd" fill="#424142" d="M1418.383,954.704l1.944-5.803l3.099-8.165l3.607-7.966
	l3.838-7.833l4.406-7.498l4.658-7.358l4.967-6.912l5.249-6.556l5.595-6.367l5.77-6.206l6.105-5.8c0,0,3.402-2.963,4.583-3.884
	c63.04-48.788,122.832-45.329,163.107-34.562c3.002,0.807,11.857,3.841,11.857,3.841l12.045,4.942l11.203,5.537l10.785,6.313
	l10.237,7.132l9.402,7.801l9.079,8.279l4.111,4.352l2.57,2.815l1.641,1.738l7.517,9.507l7.135,9.864l6.026,10.233l5.522,10.857
	l4.614,11.063l3.982,11.364l2.887,11.639l2.282,11.951l-1.347-14.208l-2.722-13.91l-3.549-13.74l-4.724-13.525l-5.442-12.912
	l-6.487-12.412l-7.566-11.994l-1.872-2.592l0.31-0.281l-0.396,0.184l-6.487-8.909l-9.338-10.738l-9.906-10.145l-11.203-9.237
	l-11.648-8.582l-12.391-7.584l-13.189-6.988l-13.773-5.723l-14.564-4.846l-9.468-2.549l-9.597-1.821l-9.519-1.638l-9.381-0.961
	l-9.532-0.49l-9.223-0.119l-9.518,0.451l-9.209,0.824l-9.1,1.422l-9.101,1.699l-8.949,2.116l-8.849,2.538l-8.524,3.143l-8.676,3.42
	l-8.149,3.74l-8.358,4.057l-7.776,4.582l-7.632,4.979l-7.648,5.228l-7.096,5.558l-7.016,5.983l-6.628,6.411l-6.394,6.782
	l-6.13,6.954l-5.573,7.287l-5.547,7.516l-4.957,7.905l-4.697,8.2l-4.212,8.309l-3.949,8.762l-3.329,9.101l-3.107,9.255
	l-4.539,18.871l-2.7,18.66l-0.659,18.741l1.099,18.359l3.106,17.897l4.619,17.604l6.328,16.998l7.974,16.242l9.481,15.437
	l11.059,14.428l12.2,13.305l13.823,12.239l14.968,10.93l16.185,9.475l17.272,7.927l18.518,6.278l5.363,1.433l5.307,1.311
	l5.536,1.108l5.263,1.152l2.21,0.287l0.519,0.058l2.679,0.331l5.479,0.706l5.076,0.454l5.414,0.496l5.349,0.23l5.473-0.021
	l5.306,0.029l5.241-0.202l5.184-0.439l5.184-0.374l5.335-0.691l5.112-0.863l-3.816,0.374l-3.837,0.115l-3.909,0.158l-3.902-0.101
	l-3.932-0.058l-3.931-0.13l-3.924-0.252l-3.995-0.31l-4.004-0.532l-4.024-0.476l-3.974-0.533l-3.859-0.827l-4.111-0.894
	l-3.822-0.771l-4.082-0.942l-3.968-1.231l-0.655-0.273l-6.213-2.103l-9.928-3.369l-15.97-7.308l-14.939-8.654l-13.822-10.029
	l-12.405-11.159l-11.314-12.34l-10.158-13.269l-8.748-14.234l-4.33-8.913l-10.202-26.825l-3.017-10.691l-2.566-16.632l-1.231-16.71
	l0.764-17.153l2.361-17.239l2.185-9.146L1418.383,954.704z"/>
<g>
	<path fill="#424142" d="M243.555,145.202c0-1.715,0.595-3.162,1.78-4.352c1.189-1.18,2.636-1.774,4.351-1.774
		c1.705,0,3.162,0.595,4.347,1.774c1.184,1.189,1.774,2.637,1.774,4.352v11.458c12.118-11.726,25.097-17.584,38.929-17.584
		c14.224,0,26.277,5.006,36.159,15.017c10.08,10.012,15.116,22.095,15.116,36.258v53.253c0,1.71-0.605,3.162-1.829,4.347
		c-1.214,1.189-2.681,1.779-4.396,1.779c-1.71,0-3.162-0.59-4.347-1.779c-1.184-1.185-1.779-2.637-1.779-4.347v-53.253
		c0-10.868-3.816-20.021-11.458-27.466c-7.642-7.707-16.796-11.557-27.466-11.557c-10.67,0-19.858,3.85-27.565,11.557
		c-7.573,7.509-11.364,16.662-11.364,27.466v53.253c0,1.71-0.59,3.162-1.774,4.347c-1.185,1.189-2.642,1.779-4.347,1.779
		c-1.715,0-3.162-0.59-4.351-1.779c-1.185-1.185-1.78-2.637-1.78-4.347V145.202z"/>
	<path fill="#424142" d="M362.112,145.202c0-1.715,0.595-3.162,1.779-4.352c1.189-1.18,2.636-1.774,4.352-1.774
		c1.71,0,3.162,0.595,4.341,1.774c1.19,1.189,1.785,2.637,1.785,4.352v11.458c12.118-11.726,25.097-17.584,38.924-17.584
		c14.234,0,26.277,5.006,36.158,15.017c10.082,10.012,15.117,22.095,15.117,36.258v53.253c0,1.71-0.604,3.162-1.824,4.347
		c-1.219,1.189-2.686,1.779-4.391,1.779c-1.725,0-3.172-0.59-4.352-1.779c-1.189-1.185-1.783-2.637-1.783-4.347v-53.253
		c0-10.868-3.816-20.021-11.459-27.466c-7.642-7.707-16.801-11.557-27.466-11.557c-10.67,0-19.863,3.85-27.565,11.557
		c-7.573,7.509-11.359,16.662-11.359,27.466v53.253c0,1.71-0.595,3.162-1.785,4.347c-1.179,1.189-2.631,1.779-4.341,1.779
		c-1.715,0-3.163-0.59-4.352-1.779c-1.185-1.185-1.779-2.637-1.779-4.347V145.202z"/>
	<path fill="#424142" d="M567.425,225.915c1.715,0,3.162,0.615,4.352,1.834c1.18,1.22,1.773,2.681,1.773,4.391
		c0,1.716-0.525,3.133-1.576,4.252c-10.279,8.892-22.301,13.338-36.07,13.338c-15.283,0-28.328-5.402-39.121-16.202
		c-10.805-10.804-16.207-23.849-16.207-39.128c0-15.278,5.402-28.317,16.207-39.122c10.793-10.799,23.838-16.202,39.121-16.202
		c15.275,0,28.32,5.402,39.125,16.202c10.803,10.805,16.205,23.844,16.205,39.122c0,1.716-0.596,3.168-1.785,4.348
		c-1.18,1.189-2.627,1.783-4.34,1.783h-92.084c1.973,9.873,6.125,17.98,12.439,24.305c8.436,8.426,18.586,12.644,30.439,12.644
		c5.402,0,10.408-0.872,15.018-2.622c4.609-1.745,8.822-4.262,12.646-7.554C564.689,226.381,565.978,225.915,567.425,225.915z
		 M578.685,188.274c-1.844-9.813-5.967-17.911-12.352-24.305c-8.434-8.43-18.574-12.642-30.43-12.642
		c-11.854,0-22.004,4.212-30.439,12.642c-6.314,6.324-10.467,14.428-12.439,24.305H578.685z"/>
	<path fill="#424142" d="M693.882,225.915c1.725,0,3.172,0.615,4.352,1.834c1.189,1.22,1.783,2.681,1.783,4.391
		c0,1.716-0.525,3.133-1.586,4.252c-10.279,8.892-22.301,13.338-36.07,13.338c-15.273,0-28.316-5.402-39.111-16.202
		c-10.814-10.804-16.217-23.849-16.217-39.128c0-15.278,5.402-28.317,16.217-39.122c10.795-10.799,23.838-16.202,39.111-16.202
		c15.295,0,28.32,5.402,39.135,16.202c10.793,10.805,16.195,23.844,16.195,39.122c0,1.716-0.596,3.168-1.775,4.348
		c-1.189,1.189-2.637,1.783-4.35,1.783h-92.084c1.982,9.873,6.137,17.98,12.449,24.305c8.436,8.426,18.576,12.644,30.43,12.644
		c5.402,0,10.408-0.872,15.018-2.622c4.619-1.745,8.822-4.262,12.648-7.554C691.146,226.381,692.445,225.915,693.882,225.915z
		 M705.142,188.274c-1.834-9.813-5.957-17.911-12.35-24.305c-8.426-8.43-18.576-12.642-30.432-12.642
		c-11.854,0-21.994,4.212-30.43,12.642c-6.313,6.324-10.467,14.428-12.449,24.305H705.142z"/>
	<path fill="#424142" d="M733.808,145.202c0-1.715,0.584-3.162,1.773-4.352c1.189-1.18,2.637-1.774,4.352-1.774
		c1.705,0,3.152,0.595,4.342,1.774c1.199,1.189,1.773,2.637,1.773,4.352v13.927c13.381-13.373,27.734-20.053,43.078-20.053
		c8.246,0,15.283,1.278,21.143,3.855c1.061,0.387,2.012,1.021,2.873,1.873c1.121,1.121,1.676,2.568,1.676,4.348
		c0,1.71-0.594,3.161-1.783,4.347c-1.18,1.188-2.627,1.778-4.342,1.778c-1.061,0-1.973-0.197-2.766-0.59
		c-4.609-2.24-10.209-3.36-16.801-3.36c-11.855,0-21.994,4.212-30.43,12.642c-8.426,8.366-12.648,18.512-12.648,30.43v49.204
		c0,1.71-0.574,3.162-1.773,4.347c-1.189,1.189-2.637,1.779-4.342,1.779c-1.715,0-3.162-0.59-4.352-1.779
		c-1.189-1.185-1.773-2.637-1.773-4.347V145.202z"/>
	<g>
		<path fill="#94BB3D" d="M48.739,201.527c-7.448,0.535-13.614,3.612-18.5,9.252c-4.899,5.641-7.08,12.183-6.557,19.627
			c0.533,7.438,3.62,13.608,9.261,18.495c5.64,4.897,12.171,7.083,19.621,6.552c7.436-0.525,13.606-3.613,18.5-9.253
			c4.895-5.635,7.072-12.177,6.547-19.62c-0.533-7.444-3.613-13.609-9.248-18.506C62.725,203.188,56.178,201.002,48.739,201.527z
			 M68.621,227.224c0.352,4.985-1.098,9.343-4.344,13.084c-3.259,3.747-7.377,5.808-12.363,6.166
			c-4.971,0.356-9.333-1.091-13.091-4.352c-3.749-3.257-5.801-7.375-6.151-12.351c-0.354-4.977,1.105-9.348,4.356-13.104
			c3.251-3.737,7.365-5.789,12.34-6.146c4.946-0.356,9.3,1.109,13.069,4.375C66.214,218.17,68.269,222.278,68.621,227.224z"/>
		<polyline fill="#94BB3D" points="71.936,231.477 109.887,221.976 107.443,210.79 69.497,220.296 		"/>
	</g>
	<g>
		<path fill="#94BB3D" d="M265.713,38.331c-8.267-8.44-18.273-12.728-30.073-12.856c-11.805-0.139-21.93,3.91-30.355,12.162
			c-8.44,8.247-12.731,18.262-12.861,30.073c-0.139,11.791,3.91,21.915,12.157,30.351c8.251,8.435,18.273,12.717,30.073,12.855
			c11.8,0.14,21.911-3.915,30.36-12.171c8.43-8.232,12.712-18.258,12.851-30.063C277.994,56.885,273.95,46.76,265.713,38.331z
			 M257.244,90.804c-6.27,6.13-13.763,9.144-22.465,9.044c-8.713-0.104-16.127-3.286-22.243-9.555
			c-6.131-6.259-9.139-13.752-9.039-22.46c0.099-8.708,3.28-16.131,9.545-22.262c6.264-6.111,13.752-9.129,22.466-9.025
			c8.707,0.1,16.122,3.281,22.247,9.545c6.076,6.225,9.074,13.703,8.966,22.46C266.615,77.319,263.458,84.734,257.244,90.804z"/>
		<polyline fill="#94BB3D" points="209.498,101.846 189.752,141.098 199.174,146.42 219.731,107.783 		"/>
	</g>
	<g>
		<path fill-rule="evenodd" clip-rule="evenodd" fill="#94BB3D" d="M220.792,168.128l-2.106-4.014l-2.443-3.885l-0.615-0.834
			l0.109-0.094l-0.128,0.055l-2.102-2.879l-3.023-3.476l-3.207-3.281l-3.623-2.992l-3.772-2.776l-4.009-2.458l-4.272-2.26
			l-4.46-1.854l-4.714-1.566l-3.063-0.823l-3.103-0.594l-3.083-0.525l-3.033-0.318l-3.087-0.158l-2.983-0.036l-3.083,0.144
			l-2.979,0.268l-2.944,0.456l-2.948,0.555l-2.897,0.684l-2.86,0.823l-2.763,1.021l-2.803,1.101l-2.642,1.208l-2.701,1.318
			l-2.518,1.482l-2.473,1.61l-2.478,1.694l-2.294,1.795l-2.27,1.938l-2.146,2.077l-2.067,2.191l-1.987,2.255l-1.804,2.359
			l-1.794,2.433l-1.606,2.558l-1.521,2.657l-1.363,2.686l-1.273,2.834l-1.078,2.944l-1.008,2.998l-1.467,6.106l-0.877,6.041
			l-0.211,6.067l0.354,5.936l1.009,5.799l1.491,5.695l2.047,5.501l2.586,5.258l3.065,4.996l3.578,4.668l3.95,4.308l4.473,3.959
			l4.845,3.539l5.238,3.067l5.593,2.563l5.989,2.031l1.732,0.466l1.722,0.427l1.792,0.361l1.702,0.372l0.714,0.089l0.243,0.228
			l-0.069-0.208l0.865,0.109l1.771,0.228l1.646,0.149l1.752,0.153l1.734,0.079l1.765-0.005l1.715,0.01l1.7-0.069l1.68-0.139
			l1.675-0.124l1.73-0.228l1.655-0.272l-1.234,0.119l-1.248,0.039l-1.26,0.05l-1.268-0.035l-1.269-0.015l-1.274-0.045l-1.273-0.084
			l-1.294-0.1l-1.294-0.169l-1.298-0.157l-1.289-0.169l-1.249-0.268l-1.329-0.288l-1.236-0.257l-1.326-0.298l-1.281-0.401
			l-0.213-0.089l-0.055-0.153l-0.899-2.885l-0.669-3.152l-0.563-3.414l-0.176-1.979l1.95,0.575l2.375,0.679l2.359,0.595l2.411,0.525
			l2.329,0.456l2.309,0.402l2.375,0.366l2.221,0.297l2.25,0.165l2.275,0.182l2.17,0.06h2.082l1.358-0.01l0.386,1.249l1.145,2.627
			l1.462,2.35l1.511,1.941l0.605-0.287l0.312-0.347l-0.822-2.462l-0.635-2.723l-0.406-2.522l1.264-0.094l1.958-0.247l1.942-0.273
			l1.775-0.371l1.854-0.376l1.665-0.506l1.68-0.511l1.581-0.62l1.507-0.619l1.467-0.738l1.338-0.733l1.328-0.847l1.209-0.858
			l1.081-0.882l1.045-1.021l0.986-1.002l0.793-1.14l-1.199,0.624l-1.214,0.565l-1.304,0.55l-1.377,0.51l-1.397,0.447l-1.467,0.377
			l-1.556,0.396l-1.566,0.333l-1.591,0.257l-1.641,0.269l-1.735,0.223l-1.754,0.158l-1.769,0.079l-1.829,0.089l-1.854,0.021
			l-1.774-0.024l-0.04-0.833l-0.039-3.375l0.193-3.618l0.272-3.657l0.461-3.826l0.664-3.885l0.456-2.345l0.164,0.004l2.409,0.149
			l2.413,0.169l2.314,0.02l2.29-0.05l2.285-0.109l2.111-0.148l2.107-0.237l2.101-0.277l1.992-0.417l1.858-0.396l1.819-0.466
			l1.823-0.51l1.65-0.65l1.571-0.624l1.457-0.758l1.492-0.744l1.313-0.856l1.229-0.917l1.051-0.962l1.031-1.025l0.901-1.057
			l-1.298,0.551l-1.348,0.59l-1.472,0.451l-1.472,0.45l-1.625,0.422l-1.536,0.396l-1.725,0.277l-1.725,0.298l-1.784,0.247
			l-1.913,0.174l-1.824,0.154l-1.982,0.138l-1.992,0.03l-2.012-0.011l-2.102-0.069l-2.166-0.069l-2.096-0.128l-2.26-0.184
			l-2.215-0.203l-1.388-0.148l0.947-3.42l1.269-4.232l1.486-4.198l1.25-3.271l1.333-3.211l1.324-3.137l1.457-3.014l1.467-2.944
			l0.724-1.367l0.297-0.034l1.705-0.124l1.646-0.209l1.645-0.276l1.576-0.328l1.497-0.307l1.467-0.462l1.388-0.436l1.313-0.5
			l1.284-0.581l1.219-0.599l1.12-0.669l1.021-0.743l0.967-0.714l0.872-0.828l0.857-0.847l0.704-0.897l-1.001,0.516l-1.101,0.445
			l-1.169,0.477l-1.199,0.297l-1.249,0.421l-1.269,0.277l-1.348,0.288l-1.368,0.282l-1.422,0.224l-1.447,0.163l-1.472,0.09
			l-1.546,0.099l-1.606,0.129l-0.575-0.021l1.141-1.873l1.645-2.468l1.715-2.409l1.696-2.189l1.705-2.132l1.67-1.953l1.76-1.833
			l0.842-0.772l0.53,0.56l2.429,3.077l2.309,3.191l1.958,3.312l1.784,3.518l1.492,3.579l1.293,3.677l0.932,3.768l0.743,3.865
			l-0.436-4.594l-0.882-4.505l-1.149-4.446l-1.527-4.376L220.792,168.128z M136.659,154.152l2.21-1.546l2.305-1.438l2.369-1.388
			l2.431-1.234l2.438-1.104l2.542-0.981l2.552-0.892l2.649-0.784l2.627-0.634l2.716-0.495l2.726-0.432l2.785-0.203l2.706-0.149
			l2.835,0.011l2.786,0.208l2.814,0.307l2.845,0.412l2.786,0.589l1.437,0.377l-0.952,0.466l-2.488,1.557l-2.513,1.843l-2.532,2.078
			l-2.468,2.423l-2.488,2.651l-2.349,2.919l-2.389,3.122l-2.344,3.37l-2.221,3.549l-0.53,0.912l-1.239-0.466l-2.873-1.249
			l-2.785-1.313l-2.746-1.329l-2.58-1.352l-2.537-1.457l-2.446-1.438l-0.646-0.437l0.134-0.208l1.542-1.873l1.556-1.774l1.581-1.666
			l1.604-1.586l1.638-1.363l1.643-1.377l1.62-1.136l-2.044,0.564l-2.133,0.749l-2.094,1.026l-2.064,1.169l-1.995,1.447l-2.04,1.526
			l-1.997,1.813l-0.357,0.348l-0.377-0.258l-2.12-1.557l-1.946-1.557l-0.223-0.213L136.659,154.152z M159.213,174.665l-0.968,1.869
			l-1.938,4.218l-1.769,4.267l-1.725,4.545l-1.832,5.357l-1.489,5.303l-0.253,0.991l-3.663-1.566l-3.598-1.595l-3.469-1.616
			l-3.326-1.704l-3.202-1.756l-2.47-1.491l0.8-2.993l1.065-3.38l1.192-3.474l1.075-2.707l1.152-2.602l1.175-2.514l1.278-2.467
			l1.269-2.398l1.373-2.291l1.39-2.19l0.3-0.386l0.53,0.426l2.483,1.913l2.612,1.798l2.819,1.74l3.043,1.721l3.155,1.61
			L159.213,174.665z M117.187,180.483l1.004-2.642l1.165-2.577l1.249-2.537l1.419-2.428l1.512-2.379l1.605-2.241l1.701-2.116
			l1.809-2.062l1.869-2.007l1.977-1.883l1.482-1.255l0.164,0.243l1.677,1.997l1.908,2.018l0.395,0.372l-0.912,1.045l-1.804,2.3
			l-1.806,2.419l-1.666,2.631l-1.573,2.751l-1.479,2.874l-1.378,2.998l-1.271,3.138l-1.294,3.718l-0.901,3.151l-0.848-0.579
			l-2.637-1.879l-2.49-1.963l-1.502-1.229L117.187,180.483z M115.152,210.729l-0.83-5.381l-0.398-5.412l0.247-5.552l0.763-5.579
			l0.709-2.964l1.948,2.249l2.446,2.419l2.668,2.448l0.231,0.173l-0.503,2.806l-0.364,3.524l-0.161,3.493l0.018,3.276l0.305,3.172
			l0.491,3.053l0.682,2.864l0.855,2.666l1.118,2.494l0.488,0.827l-1.13-0.714l-2.602-1.784l-2.454-1.76l-2.305-1.779l-1.244-1.08
			L115.152,210.729z M149.108,250.676l-5.172-2.369l-4.832-2.801l-4.475-3.246l-4.017-3.607l-3.66-3.994l-3.288-4.298l-2.835-4.604
			l-1.399-2.889l2.176,1.917l2.765,2.211l3.043,2.13l3.179,2.053l3.318,2.002l3.585,1.824l3.719,1.779l3.828,1.615l1.953,0.719
			l0.57,2.482l1.088,3.376l1.309,3.023l1.551,2.755l0.808,1.012L149.108,250.676z M146.028,220.514l-0.196,4.679l0.044,4.445
			l0.109,1.63l-3.247-1.317l-3.269-1.447l-3.208-1.453l-3.065-1.551l-2.932-1.58l-0.634-0.362l-0.686-2.003l-0.66-2.418
			l-0.483-2.617l-0.34-2.726l-0.137-2.805l-0.044-3.023l0.089-3.014l0.31-3.142l0.362-3.23l0.268-1.334l0.503,0.367l3.36,2.215
			l3.585,2.26l3.849,2.042l3.995,2.012l4.121,1.765l-0.503,2.696l-0.721,5.055L146.028,220.514z M178.775,221.188l-0.377,4.192
			l-0.198,4.049l0.139,3.797l0.243,3.682l0.322,1.934l-1.497-0.139l-2.047-0.223l-2.052-0.233l-2.077-0.298l-2.051-0.297
			L167,237.226l-2.091-0.437l-2.166-0.427l-2.19-0.496l-2.193-0.56l-2.221-0.629l-2.143-0.654l-2.23-0.703l-0.134-0.04l0.044-1.839
			l0.216-4.237l0.375-4.263l0.527-4.505l0.761-4.544l0.677-3.38l2.513,0.861l2.696,0.893l2.708,0.828l2.681,0.764l2.657,0.679
			l2.667,0.613l2.656,0.621l2.617,0.47l2.617,0.416l1.348,0.164l-0.015,0.133L178.775,221.188z M188.846,187.824l-1.65,3.508
			l-1.591,3.708l-1.486,3.846l-1.572,4.578l-1.264,4.58l-0.476,2.013l-1.829-0.278l-2.335-0.456l-2.398-0.525l-2.428-0.516
			l-2.418-0.594l-2.518-0.645l-2.438-0.654l-2.468-0.813l-2.513-0.714l-2.49-0.862l-1.115-0.377l1.082-4.015l1.504-4.852
			l1.688-4.976l1.408-3.91l1.511-3.747l1.621-3.647l0.635-1.407l1.149,0.446l2.176,0.714l2.132,0.653l2.056,0.595l2.121,0.506
			l2.111,0.525l2.102,0.416l2.051,0.308l2.022,0.396l1.982,0.225l2.042,0.163l1.874,0.178l1.962,0.1l0.753,0.02l-1.194,2.072
			L188.846,187.824z M211.455,161.161l-2.171,1.338l-2.195,1.551l-2.226,1.789l-2.092,2.052l-2.21,2.235l-2.071,2.482l-2.052,2.622
			l-1.343,1.968l-0.243-0.005l-1.734-0.084l-1.75-0.213l-1.819-0.146l-1.754-0.286l-1.844-0.258l-1.854-0.288l-1.913-0.316
			l-1.863-0.406l-1.874-0.416l-1.958-0.477l-1.958-0.467l-1.903-0.544l-1.973-0.53l-1.893-0.64l-0.922-0.313l0.169-0.342l1.764-3.32
			l1.79-3.152l1.878-3.033l1.844-2.884l1.938-2.82l1.967-2.612l1.933-2.458l2.052-2.27l1.993-2.171l1.595-1.575l3.836,1.238
			l3.9,1.606l3.633,1.788l3.489,2.048l3.306,2.309l3.058,2.519l2.929,2.686l1.328,1.407L211.455,161.161z"/>
	</g>
	<path fill-rule="evenodd" clip-rule="evenodd" fill="#424142" d="M116.56,182.362l0.627-1.879l1.004-2.642l1.165-2.577l1.249-2.537
		l1.419-2.428l1.512-2.379l1.605-2.241l1.701-2.116l1.809-2.062l1.869-2.007l1.977-1.883c0,0,1.098-0.957,1.482-1.255
		c20.401-15.79,39.752-14.67,52.786-11.185c0.981,0.257,3.836,1.238,3.836,1.238l3.9,1.606l3.633,1.788l3.489,2.048l3.306,2.309
		l3.058,2.519l2.929,2.686l1.328,1.407l0.837,0.913l0.53,0.56l2.429,3.077l2.309,3.191l1.958,3.312l1.784,3.518l1.492,3.579
		l1.293,3.677l0.932,3.768l0.743,3.865l-0.436-4.594l-0.882-4.505l-1.149-4.446l-1.527-4.376l-1.764-4.184l-2.106-4.014
		l-2.443-3.885l-0.615-0.834l0.109-0.094l-0.128,0.055l-2.102-2.879l-3.023-3.476l-3.207-3.281l-3.623-2.992l-3.772-2.776
		l-4.009-2.458l-4.272-2.26l-4.46-1.854l-4.714-1.566l-3.063-0.823l-3.103-0.594l-3.083-0.525l-3.033-0.318l-3.087-0.158
		l-2.983-0.036l-3.083,0.144l-2.979,0.268l-2.944,0.456l-2.948,0.555l-2.897,0.684l-2.86,0.823l-2.763,1.021l-2.803,1.101
		l-2.642,1.208l-2.701,1.318l-2.518,1.482l-2.473,1.61l-2.478,1.694l-2.294,1.795l-2.27,1.938l-2.146,2.077l-2.067,2.191
		l-1.987,2.255l-1.804,2.359l-1.794,2.433l-1.606,2.558l-1.521,2.657l-1.363,2.686l-1.273,2.834l-1.078,2.944l-1.008,2.998
		l-1.467,6.106l-0.877,6.041l-0.211,6.067l0.354,5.936l1.009,5.799l1.491,5.695l2.047,5.501l2.586,5.258l3.065,4.996l3.578,4.668
		l3.95,4.308l4.473,3.959l4.845,3.539l5.238,3.067l5.593,2.563l5.989,2.031l1.732,0.466l1.722,0.427l1.792,0.361l1.702,0.372
		l0.714,0.089l0.174,0.02l0.865,0.109l1.771,0.228l1.646,0.149l1.752,0.153l1.734,0.079l1.765-0.005l1.715,0.01l1.7-0.069
		l1.68-0.139l1.675-0.124l1.73-0.228l1.655-0.272l-1.234,0.119l-1.248,0.039l-1.26,0.05l-1.268-0.035l-1.269-0.015l-1.274-0.045
		l-1.273-0.084l-1.294-0.1l-1.294-0.169l-1.298-0.157l-1.289-0.169l-1.249-0.268l-1.329-0.288l-1.236-0.257l-1.326-0.298
		l-1.281-0.401l-0.213-0.089l-2.007-0.679l-3.214-1.091l-5.172-2.369l-4.832-2.801l-4.475-3.246l-4.017-3.607l-3.66-3.994
		l-3.288-4.298l-2.835-4.604l-1.399-2.889l-3.301-8.679l-0.976-3.46l-0.83-5.381l-0.398-5.412l0.247-5.552l0.763-5.579l0.709-2.964
		L116.56,182.362z"/>
</g>
</svg>
